<svg width="18" height="18" viewBox="0 0 18 18" fill="none" xmlns="http://www.w3.org/2000/svg">
<path d="M13.1538 0H4.84615C3.5613 0.00137443 2.32946 0.512391 1.42092 1.42092C0.512391 2.32946 0.00137443 3.5613 0 4.84615V13.1538C0.00137443 14.4387 0.512391 15.6705 1.42092 16.5791C2.32946 17.4876 3.5613 17.9986 4.84615 18H13.1538C14.4387 17.9986 15.6705 17.4876 16.5791 16.5791C17.4876 15.6705 17.9986 14.4387 18 13.1538V4.84615C17.9986 3.5613 17.4876 2.32946 16.5791 1.42092C15.6705 0.512391 14.4387 0.00137443 13.1538 0ZM9 13.1538C8.17845 13.1538 7.37534 12.9102 6.69225 12.4538C6.00915 11.9974 5.47674 11.3486 5.16235 10.5896C4.84795 9.83059 4.76569 8.99539 4.92597 8.18962C5.08625 7.38386 5.48186 6.64371 6.06279 6.06279C6.64371 5.48186 7.38386 5.08625 8.18962 4.92597C8.99539 4.76569 9.83059 4.84795 10.5896 5.16235C11.3486 5.47674 11.9974 6.00915 12.4538 6.69225C12.9102 7.37534 13.1538 8.17845 13.1538 9C13.1527 10.1013 12.7147 11.1572 11.9359 11.9359C11.1572 12.7147 10.1013 13.1527 9 13.1538ZM14.1923 4.84615C13.9869 4.84615 13.7861 4.78525 13.6154 4.67114C13.4446 4.55703 13.3115 4.39485 13.2329 4.20509C13.1543 4.01534 13.1337 3.80654 13.1738 3.6051C13.2139 3.40366 13.3128 3.21862 13.458 3.07339C13.6032 2.92816 13.7883 2.82925 13.9897 2.78918C14.1912 2.74912 14.4 2.76968 14.5897 2.84828C14.7795 2.92688 14.9416 3.05998 15.0558 3.23075C15.1699 3.40153 15.2308 3.6023 15.2308 3.80769C15.2308 4.08311 15.1214 4.34725 14.9266 4.542C14.7319 4.73674 14.4677 4.84615 14.1923 4.84615ZM11.7692 9C11.7692 9.5477 11.6068 10.0831 11.3025 10.5385C10.9982 10.9939 10.5657 11.3488 10.0597 11.5584C9.55373 11.768 8.99693 11.8229 8.45975 11.716C7.92257 11.6092 7.42914 11.3454 7.04186 10.9581C6.65457 10.5709 6.39083 10.0774 6.28398 9.54025C6.17713 9.00307 6.23197 8.44627 6.44156 7.94026C6.65116 7.43425 7.0061 7.00176 7.4615 6.69747C7.9169 6.39318 8.4523 6.23077 9 6.23077C9.73445 6.23077 10.4388 6.52253 10.9581 7.04186C11.4775 7.56119 11.7692 8.26555 11.7692 9Z" fill="black"/>
</svg>
