<svg width="88" height="50" viewBox="0 0 88 50" fill="none" xmlns="http://www.w3.org/2000/svg">
<path d="M80.5847 49.5374L80.585 35.2474L85.7771 37.9998L80.5847 49.5374Z" fill="#D97706"/>
<path d="M0 19C0 8.50659 8.50659 0 19 0H78.8363C82.7215 0 85.8711 3.14963 85.8711 7.03489V38H19C8.5066 38 0 29.4934 0 19Z" fill="#F59E0B"/>
<g clip-path="url(#clip0_474_26303)">
<path d="M19.0007 25.6668V22.3335M19.0007 15.6668V12.3335M17.334 14.0002H20.6673M17.334 24.0002H20.6673M24.6673 13.0002L23.5112 16.0061C23.3232 16.4949 23.2292 16.7393 23.083 16.9449C22.9534 17.1271 22.7942 17.2863 22.612 17.4158C22.4065 17.562 22.162 17.656 21.6732 17.844L18.6673 19.0002L21.6732 20.1563C22.162 20.3443 22.4065 20.4383 22.612 20.5845C22.7942 20.714 22.9534 20.8732 23.083 21.0554C23.2292 21.261 23.3232 21.5054 23.5112 21.9943L24.6673 25.0002L25.8234 21.9943C26.0114 21.5054 26.1054 21.261 26.2516 21.0554C26.3812 20.8732 26.5404 20.714 26.7226 20.5845C26.9282 20.4383 27.1726 20.3443 27.6614 20.1563L30.6673 19.0002L27.6614 17.844C27.1726 17.656 26.9282 17.562 26.7226 17.4158C26.5404 17.2863 26.3812 17.1271 26.2516 16.9449C26.1054 16.7393 26.0114 16.4949 25.8234 16.0061L24.6673 13.0002Z" stroke="white" stroke-width="1.34098" stroke-linecap="round" stroke-linejoin="round"/>
</g>
<path d="M38.0852 25V13.48H39.7812L45.4532 22.04V13.48H47.1492V25H45.4532L39.7812 16.432V25H38.0852ZM53.034 25.24C52.1754 25.24 51.4207 25.0533 50.77 24.68C50.1247 24.3013 49.6207 23.776 49.258 23.104C48.9007 22.4267 48.722 21.6427 48.722 20.752C48.722 19.808 48.898 18.9893 49.25 18.296C49.6074 17.6027 50.1034 17.0667 50.738 16.688C51.3727 16.3093 52.1114 16.12 52.954 16.12C53.834 16.12 54.5834 16.3253 55.202 16.736C55.8207 17.1413 56.282 17.72 56.586 18.472C56.8954 19.224 57.018 20.1173 56.954 21.152H55.282V20.544C55.2714 19.5413 55.0794 18.8 54.706 18.32C54.338 17.84 53.7754 17.6 53.018 17.6C52.1807 17.6 51.5514 17.864 51.13 18.392C50.7087 18.92 50.498 19.6827 50.498 20.68C50.498 21.6293 50.7087 22.3653 51.13 22.888C51.5514 23.4053 52.1594 23.664 52.954 23.664C53.4767 23.664 53.9274 23.5467 54.306 23.312C54.69 23.072 54.9887 22.7307 55.202 22.288L56.842 22.808C56.506 23.5813 55.9967 24.1813 55.314 24.608C54.6314 25.0293 53.8714 25.24 53.034 25.24ZM49.954 21.152V19.848H56.122V21.152H49.954ZM60.0964 25L57.4564 16.352L59.1124 16.36L60.9204 22.288L62.7444 16.36H64.1844L66.0084 22.288L67.8164 16.36H69.4644L66.8244 25H65.4804L63.4644 18.744L61.4404 25H60.0964Z" fill="white"/>
<defs>
<clipPath id="clip0_474_26303">
<rect width="16" height="16" fill="white" transform="translate(16 11)"/>
</clipPath>
</defs>
</svg>
