<svg width="24" height="24" viewBox="0 0 24 24" fill="none" xmlns="http://www.w3.org/2000/svg">
<path d="M0 12C0 5.37258 5.37258 0 12 0C18.6274 0 24 5.37258 24 12C24 18.6274 18.6274 24 12 24C5.37258 24 0 18.6274 0 12Z" fill="#DCF4FF"/>
<path d="M12 14.6667C11.6333 14.6667 11.3196 14.5362 11.0587 14.2753C10.7978 14.0144 10.6671 13.7004 10.6667 13.3333C10.6662 12.9662 10.7969 12.6524 11.0587 12.392C11.3204 12.1316 11.6342 12.0009 12 12C12.3658 11.9991 12.6798 12.1298 12.942 12.392C13.2042 12.6542 13.3347 12.968 13.3333 13.3333C13.332 13.6987 13.2016 14.0127 12.942 14.2753C12.6824 14.538 12.3684 14.6684 12 14.6667ZM8.91667 8.66667H15.0833L15.9333 6.96667C16.0444 6.74444 16.036 6.52778 15.908 6.31667C15.78 6.10556 15.5884 6 15.3333 6H8.66667C8.41111 6 8.21956 6.10556 8.092 6.31667C7.96444 6.52778 7.956 6.74444 8.06667 6.96667L8.91667 8.66667ZM9.6 18H14.4C15.4 18 16.25 17.6529 16.95 16.9587C17.65 16.2644 18 15.4116 18 14.4C18 13.9778 17.9278 13.5667 17.7833 13.1667C17.6389 12.7667 17.4333 12.4056 17.1667 12.0833L15.4333 10H8.56667L6.83333 12.0833C6.56667 12.4056 6.36111 12.7667 6.21667 13.1667C6.07222 13.5667 6 13.9778 6 14.4C6 15.4111 6.34733 16.264 7.042 16.9587C7.73667 17.6533 8.58933 18.0004 9.6 18Z" fill="#0EA5E9"/>
</svg>
