<svg width="22" height="22" viewBox="0 0 22 22" fill="none" xmlns="http://www.w3.org/2000/svg">
<path d="M6.41602 3.66683C6.41602 2.65431 7.23683 1.8335 8.24935 1.8335H13.7493C14.7619 1.8335 15.5827 2.65431 15.5827 3.66683" stroke="#96C8E2" stroke-width="1.1" stroke-linecap="round"/>
<path d="M5.49935 20.1665H7.61473V11.9998C7.61473 10.9873 8.43555 10.1665 9.44807 10.1665H12.5506C13.5632 10.1665 14.384 10.9873 14.384 11.9998V20.1665H16.4993C17.5119 20.1665 18.3327 19.3457 18.3327 18.3332V7.33317C18.3327 5.30813 16.6911 3.6665 14.666 3.6665H7.33268C5.30764 3.6665 3.66602 5.30813 3.66602 7.33317V18.3332C3.66602 19.3457 4.48683 20.1665 5.49935 20.1665Z" stroke="#292524" stroke-width="1.1"/>
<circle cx="8.25065" cy="7.33317" r="0.916667" fill="#96C8E2"/>
<circle cx="11.0007" cy="7.33317" r="0.916667" fill="#96C8E2"/>
<circle cx="13.7507" cy="7.33317" r="0.916667" fill="#96C8E2"/>
<path d="M7.33398 18.3335H14.6673" stroke="#292524" stroke-width="1.1"/>
<path d="M7.33398 20.1665L14.6673 20.1665" stroke="#292524" stroke-width="1.1"/>
<path d="M11.916 12.8335V14.6668" stroke="#96C8E2" stroke-width="0.916667" stroke-linecap="round"/>
<path d="M10.084 12.8335V14.6668" stroke="#96C8E2" stroke-width="0.916667" stroke-linecap="round"/>
</svg>
