<svg width="22" height="22" viewBox="0 0 22 22" fill="none" xmlns="http://www.w3.org/2000/svg">
<path d="M6.01495 19.2502H3.79883V7.3335M15.9875 19.2502H18.2036V7.3335" stroke="#292524" stroke-width="1.1"/>
<path d="M11.3304 2.79987L2.78571 6.89753C2.56581 7.00299 2.64093 7.33333 2.88481 7.33333H19.1974C19.4365 7.33333 19.5158 7.01305 19.3043 6.90147L11.5364 2.80381C11.4722 2.76996 11.3958 2.7685 11.3304 2.79987Z" stroke="#292524" stroke-width="1.1"/>
<path d="M1.83398 19.25L20.1673 19.25" stroke="#292524" stroke-width="1.1" stroke-linecap="round"/>
<path d="M6.875 14.2083L8.18048 11.9237C8.50689 11.3525 9.11435 11 9.77226 11H12.2277C12.8856 11 13.4931 11.3525 13.8195 11.9237L15.125 14.2083" stroke="#96C8E2" stroke-width="1.1" stroke-linecap="round"/>
<path d="M7.33398 17.4165C7.33398 17.9228 7.74439 18.3332 8.25065 18.3332C8.75691 18.3332 9.16732 17.9228 9.16732 17.4165" stroke="#292524" stroke-width="0.916667"/>
<path d="M12.834 17.4165C12.834 17.9228 13.2444 18.3332 13.7507 18.3332C14.2569 18.3332 14.6673 17.9228 14.6673 17.4165" stroke="#292524" stroke-width="0.916667"/>
<path d="M13.7513 13.75H8.2513C7.23878 13.75 6.41797 14.5708 6.41797 15.5833V16.5C6.41797 17.0063 6.82838 17.4167 7.33464 17.4167H14.668C15.1742 17.4167 15.5846 17.0063 15.5846 16.5V15.5833C15.5846 14.5708 14.7638 13.75 13.7513 13.75Z" stroke="#292524" stroke-width="0.916667"/>
<circle cx="14.2083" cy="16.0418" r="0.458333" fill="#96C8E2"/>
<circle cx="7.79232" cy="16.0418" r="0.458333" fill="#96C8E2"/>
</svg>
