<svg width="22" height="22" viewBox="0 0 22 22" fill="none" xmlns="http://www.w3.org/2000/svg">
<path d="M7.33333 18.3335L5.5 20.1668" stroke="#292524" stroke-width="1.1" stroke-linecap="round"/>
<path d="M15.5827 18.3335L17.416 20.1668" stroke="#292524" stroke-width="1.1" stroke-linecap="round"/>
<path d="M19.25 11.7335H4.95C4.60936 11.7335 4.43905 11.7335 4.29654 11.7561C3.51207 11.8803 2.89682 12.4956 2.77257 13.28C2.75 13.4225 2.75 13.5929 2.75 13.9335C2.75 14.6148 2.75 14.9554 2.79514 15.2404C3.04364 16.8094 4.27413 18.0399 5.84307 18.2884C6.12809 18.3335 6.46873 18.3335 7.15 18.3335H11.9167C15.3736 18.3335 17.1021 18.3335 18.1761 17.2596C19.25 16.1856 19.25 14.4571 19.25 11.0002V5.50016C19.25 3.77168 19.25 2.90744 18.713 2.37047C18.1761 1.8335 17.3118 1.8335 15.5833 1.8335H9.94231" stroke="#292524" stroke-width="1.1"/>
<path d="M8.56044 5.5H10.6883C11.1653 5.5 11.4038 5.5 11.5602 5.44103C11.9704 5.28632 12.2136 4.86284 12.1406 4.43058C12.1127 4.2658 11.9925 4.05977 11.7522 3.6477L11.7522 3.64769L11.7522 3.64768C11.2778 2.83451 11.0406 2.42792 10.7834 2.218C10.1087 1.66755 9.13998 1.66755 8.46534 2.218C8.20806 2.42792 7.97088 2.83451 7.49653 3.64769C7.25615 4.05977 7.13596 4.2658 7.10812 4.43058C7.03506 4.86284 7.2783 5.28632 7.68849 5.44103C7.84485 5.5 8.08338 5.5 8.56044 5.5Z" stroke="#96C8E2" stroke-width="1.1"/>
<path d="M9.16602 7.3335V9.16683" stroke="#96C8E2" stroke-width="1.1" stroke-linecap="round"/>
<path d="M11 8.25V10.0833" stroke="#96C8E2" stroke-width="1.1" stroke-linecap="round"/>
</svg>
