<svg width="22" height="22" viewBox="0 0 22 22" fill="none" xmlns="http://www.w3.org/2000/svg">
<path d="M9.77427 10.7277C9.67826 10.4497 9.47472 10.1779 9.18082 10.1662C8.33317 10.1326 7.42335 10.2117 6.87983 10.534L6.81026 10.5755C6.59403 10.7033 6.43421 10.9146 6.42011 11.1703C6.3999 11.5539 6.44361 12.1705 6.80227 12.8083C7.43874 13.9396 8.54338 14.4597 9.0111 14.6373C9.15023 14.6903 9.30254 14.6691 9.43086 14.5934C9.6673 14.4534 9.7679 14.1582 9.70538 13.8851C9.56218 13.2575 9.51011 12.4042 9.80737 11.647C9.92065 11.3584 9.87547 11.0207 9.77427 10.7277ZM12.5168 10.6398C12.2287 10.6726 11.9717 10.8638 11.7906 11.0903C11.6163 11.3083 11.4961 11.6035 11.6215 11.8529C12.0211 12.6475 12.5589 13.4559 13.1199 13.7881L13.1895 13.8296C13.4057 13.9575 13.6642 13.9937 13.8866 13.8779C14.3846 13.6185 14.7984 13.2163 15.0777 12.72C15.7142 11.5886 15.6009 10.3463 15.5168 9.84212C15.5034 9.76854 15.4742 9.69892 15.4315 9.63827C15.3887 9.57762 15.3334 9.52745 15.2695 9.49137C15.0331 9.35098 14.7341 9.40935 14.5348 9.60089C14.0615 10.0569 13.3365 10.5464 12.5168 10.6398ZM10.3175 8.69861C10.5155 8.94526 10.8374 9.07665 11.1452 9.14933C11.4284 9.2162 11.7693 9.1843 11.9215 8.9363C12.3737 8.1993 12.7622 7.35075 12.7622 6.70614V6.62413C12.7622 6.36842 12.6635 6.12044 12.4548 5.98053C11.987 5.66727 11.4405 5.50032 10.8819 5.5C9.60902 5.5 8.61765 6.22224 8.23408 6.54886C8.1786 6.5976 8.13435 6.65837 8.10452 6.72678C8.07469 6.79519 8.06002 6.86954 8.06157 6.94448C8.06157 7.2243 8.25994 7.46071 8.52176 7.54224C9.10644 7.72326 9.82746 8.08786 10.3175 8.69861Z" stroke="#96C8E2" stroke-width="1.1" stroke-linejoin="round"/>
<path d="M18.3327 10.0833C18.3327 12.0283 17.5601 13.8935 16.1848 15.2688C14.8095 16.6441 12.9443 17.4167 10.9993 17.4167C9.05443 17.4167 7.18917 16.6441 5.8139 15.2688C4.43863 13.8935 3.66602 12.0283 3.66602 10.0833C3.66602 8.13841 4.43863 6.27315 5.8139 4.89788C7.18917 3.52262 9.05443 2.75 10.9993 2.75C12.9443 2.75 14.8095 3.52262 16.1848 4.89788C17.5601 6.27315 18.3327 8.13841 18.3327 10.0833Z" stroke="#292524" stroke-width="1.1" stroke-linejoin="round"/>
<path d="M6.41602 15.5835V18.3335C6.41602 19.346 7.23683 20.1668 8.24935 20.1668H13.7493C14.7619 20.1668 15.5827 19.346 15.5827 18.3335V16.0002" stroke="#292524" stroke-width="1.1"/>
</svg>
