<svg width="22" height="22" viewBox="0 0 22 22" fill="none" xmlns="http://www.w3.org/2000/svg">
<path d="M13.877 20.8545C13.877 21.2342 14.1848 21.542 14.5645 21.542C14.9441 21.542 15.252 21.2342 15.252 20.8545H14.5645H13.877ZM15.252 20.167V19.4795H13.877V20.167H14.5645H15.252ZM14.5645 20.8545H15.252V20.167H14.5645H13.877V20.8545H14.5645Z" fill="#292524"/>
<path d="M6.74609 20.8545C6.74609 21.2342 7.0539 21.542 7.43359 21.542C7.81329 21.542 8.12109 21.2342 8.12109 20.8545H7.43359H6.74609ZM8.12109 20.167V19.4795H6.74609V20.167H7.43359H8.12109ZM7.43359 20.8545H8.12109V20.167H7.43359H6.74609V20.8545H7.43359Z" fill="#292524"/>
<path d="M8.45312 13.75V14.6667" stroke="#96C8E2" stroke-width="1.1" stroke-linecap="round"/>
<path d="M8.45312 5.5V6.41667" stroke="#96C8E2" stroke-width="1.1" stroke-linecap="round"/>
<path d="M6.41602 10.0835V3.66683C6.41602 2.65431 7.23683 1.8335 8.24935 1.8335H13.7493C14.7619 1.8335 15.5827 2.65431 15.5827 3.66683V10.0835" stroke="#96C8E2" stroke-width="1.1" stroke-linecap="round"/>
<path d="M15.5827 10.0835H6.41602V19.2502H15.5827V10.0835Z" stroke="#292524" stroke-width="1.1" stroke-linecap="round"/>
</svg>
