<svg width="22" height="22" viewBox="0 0 22 22" fill="none" xmlns="http://www.w3.org/2000/svg">
<rect x="5.04232" y="3.20833" width="11.9167" height="15.5833" rx="1.375" stroke="#292524" stroke-width="0.916667"/>
<circle cx="7.33268" cy="5.50016" r="0.916667" fill="#96C8E2"/>
<circle cx="10.0827" cy="5.50016" r="0.916667" fill="#96C8E2"/>
<path d="M14.6673 12.8332C14.6673 13.8056 14.281 14.7383 13.5934 15.4259C12.9057 16.1135 11.9731 16.4998 11.0007 16.4998C10.0282 16.4998 9.09556 16.1135 8.40793 15.4259C7.72029 14.7383 7.33398 13.8056 7.33398 12.8332C7.33398 11.8607 7.72029 10.9281 8.40793 10.2404C9.09556 9.55281 10.0282 9.1665 11.0007 9.1665C11.9731 9.1665 12.9057 9.55281 13.5934 10.2404C14.281 10.9281 14.6673 11.8607 14.6673 12.8332Z" stroke="#96C8E2" stroke-width="1.1" stroke-linejoin="round"/>
</svg>
