<svg width="22" height="22" viewBox="0 0 22 22" fill="none" xmlns="http://www.w3.org/2000/svg">
<path d="M16.0005 7.55586L17.1005 5.72252C17.1833 5.58447 17.3325 5.5 17.4935 5.5H19.1745C19.3355 5.5 19.4847 5.58447 19.5675 5.72252L20.6675 7.55586C20.8508 7.86135 20.6307 8.25 20.2745 8.25H16.3935C16.0372 8.25 15.8172 7.86135 16.0005 7.55586Z" stroke="#292524" stroke-width="1.1"/>
<path d="M18.334 8.25V18.3333" stroke="#292524" stroke-width="1.1"/>
<path d="M16.5 18.3335H20.1667" stroke="#292524" stroke-width="1.1" stroke-linecap="round"/>
<rect x="6.87435" y="4.12484" width="5.5" height="2.75" rx="0.458333" stroke="#96C8E2" stroke-width="0.916667"/>
<path d="M14.0254 17.6919V18.3336" stroke="#292524" stroke-width="1.1" stroke-linecap="round"/>
<path d="M2.47656 17.6919V18.3336" stroke="#292524" stroke-width="1.1" stroke-linecap="round"/>
<path d="M3.11719 12.5584V12.1001C3.11719 10.5813 4.3484 9.3501 5.86719 9.3501H10.6339C12.1526 9.3501 13.3839 10.5813 13.3839 12.1001V12.5584" stroke="#96C8E2" stroke-width="1.1" stroke-linecap="round"/>
<path d="M4.27843 14.8044V13.7808C4.27843 13.1058 3.73122 12.5586 3.05621 12.5586C2.38119 12.5586 1.83398 13.1058 1.83398 13.7808V15.8586C1.83398 16.8711 2.65479 17.6919 3.66732 17.6919H12.834C13.8465 17.6919 14.6673 16.8711 14.6673 15.8586V13.8711C14.6673 13.1462 14.0797 12.5586 13.3548 12.5586C12.6299 12.5586 12.0423 13.1462 12.0423 13.8711V14.8044H4.27843Z" stroke="#292524" stroke-width="1.1"/>
</svg>
