<svg width="22" height="22" viewBox="0 0 22 22" fill="none" xmlns="http://www.w3.org/2000/svg">
<path d="M19.25 17.4165V18.3332" stroke="#292524" stroke-width="1.1" stroke-linecap="round"/>
<path d="M2.75 17.4165V18.3332" stroke="#292524" stroke-width="1.1" stroke-linecap="round"/>
<path d="M3.66602 10.0833V8.25C3.66602 6.73122 4.89723 5.5 6.41602 5.5H15.5827C17.1015 5.5 18.3327 6.73122 18.3327 8.25V10.0833" stroke="#96C8E2" stroke-width="1.1" stroke-linecap="round"/>
<path d="M5.32605 13.2918V11.8295C5.32605 10.8652 4.54432 10.0835 3.58002 10.0835C2.61571 10.0835 1.83398 10.8652 1.83398 11.8295V15.5835C1.83398 16.596 2.6548 17.4168 3.66732 17.4168H18.334C19.3465 17.4168 20.1673 16.596 20.1673 15.5835V11.9168C20.1673 10.9043 19.3465 10.0835 18.334 10.0835H18.2507C17.2381 10.0835 16.4173 10.9043 16.4173 11.9168V13.2918H5.32605Z" stroke="#292524" stroke-width="1.1"/>
</svg>
