<svg width="25" height="26" viewBox="0 0 25 26" fill="none" xmlns="http://www.w3.org/2000/svg">
<path d="M18.6601 0H6.1791C3.1699 0 0.730469 2.43943 0.730469 5.44863V14.8093C0.730469 16.3139 1.95018 17.5337 3.45478 17.5337H21.3844C22.889 17.5337 24.1087 16.3139 24.1087 14.8093V5.44863C24.1087 2.43944 21.6693 0 18.6601 0Z" fill="white"/>
<path d="M18.7116 2.19189H6.12695C4.35684 2.19189 2.92188 3.62686 2.92188 5.39697V14.8095C2.92188 16.3141 4.14159 17.5338 5.64619 17.5338H19.1924C20.697 17.5338 21.9167 16.3141 21.9167 14.8095V5.39697C21.9167 3.62686 20.4817 2.19189 18.7116 2.19189Z" fill="#65B1D8"/>
<path d="M2.19141 20.6021V21.6979C2.19141 23.1101 3.33621 24.2549 4.7484 24.2549C6.16059 24.2549 7.30539 23.1101 7.30539 21.6979V20.6021" stroke="white" stroke-width="2.72432"/>
<path d="M17.5332 20.6021V21.6979C17.5332 23.1101 18.678 24.2549 20.0902 24.2549C21.5024 24.2549 22.6472 23.1101 22.6472 21.6979V20.6021" stroke="white" stroke-width="2.72432"/>
<path d="M19.3907 9.49756H5.44863C2.43944 9.49756 0 11.937 0 14.9462V19.1929C0 20.6975 1.21972 21.9172 2.72432 21.9172H22.115C23.6196 21.9172 24.8394 20.6975 24.8394 19.1929V14.9462C24.8394 11.937 22.3999 9.49756 19.3907 9.49756Z" fill="white"/>
<circle cx="21.1131" cy="18.0452" r="1.24197" fill="#96C8E2"/>
<circle cx="3.72634" cy="18.0452" r="1.24197" fill="#96C8E2"/>
<path d="M9.49805 18.6294H15.7079" stroke="#96C8E2" stroke-width="3.20508"/>
</svg>
