<svg width="22" height="22" viewBox="0 0 22 22" fill="none" xmlns="http://www.w3.org/2000/svg">
<rect x="4.21602" y="3.3" width="8.98333" height="13.5667" rx="1.28333" stroke="#292524" stroke-width="1.1"/>
<path d="M10.084 13.2915C10.084 13.6562 9.93912 14.0059 9.68126 14.2638C9.42339 14.5216 9.07366 14.6665 8.70898 14.6665C8.34431 14.6665 7.99458 14.5216 7.73671 14.2638C7.47885 14.0059 7.33398 13.6562 7.33398 13.2915C7.33398 12.9268 7.47885 12.5771 7.73671 12.3192C7.99458 12.0614 8.34431 11.9165 8.70898 11.9165C9.07366 11.9165 9.42339 12.0614 9.68126 12.3192C9.93912 12.5771 10.084 12.9268 10.084 13.2915Z" stroke="#96C8E2" stroke-width="1.1" stroke-linejoin="round"/>
<path d="M19.2507 8.24984C19.2507 8.73607 19.0575 9.20238 18.7137 9.5462C18.3699 9.89002 17.9035 10.0832 17.4173 10.0832C16.9311 10.0832 16.4648 9.89002 16.121 9.5462C15.7771 9.20238 15.584 8.73607 15.584 8.24984C15.584 7.76361 15.7771 7.29729 16.121 6.95347C16.4648 6.60966 16.9311 6.4165 17.4173 6.4165C17.9035 6.4165 18.3699 6.60966 18.7137 6.95347C19.0575 7.29729 19.2507 7.76361 19.2507 8.24984Z" stroke="#292524" stroke-width="1.1" stroke-linejoin="round"/>
<path d="M16.5 9.625L16.9583 13.2917H17.875L18.3333 10.0833" stroke="#292524" stroke-width="1.1"/>
<path d="M6.91192 5.5C6.59761 5.8143 6.11044 6.58435 6.67619 7.1501C7.24194 7.71584 6.91189 8.64304 6.67614 9.03592" stroke="#96C8E2" stroke-width="0.916667" stroke-linecap="round"/>
<path d="M8.91778 5.5C8.60347 5.8143 8.1163 6.58435 8.68205 7.1501C9.2478 7.71584 8.91775 8.64304 8.682 9.03592" stroke="#96C8E2" stroke-width="0.916667" stroke-linecap="round"/>
<path d="M10.5799 5.5C10.2656 5.8143 9.77841 6.58435 10.3442 7.1501C10.9099 7.71584 10.5799 8.64304 10.3441 9.03592" stroke="#96C8E2" stroke-width="0.916667" stroke-linecap="round"/>
<mask id="path-8-inside-1_382_7748" fill="white">
<path d="M10.084 17.875C10.084 18.6344 10.6996 19.25 11.459 19.25C12.2184 19.25 12.834 18.6344 12.834 17.875V16.5H10.084V17.875Z"/>
</mask>
<path d="M8.98398 17.875C8.98398 19.2419 10.0921 20.35 11.459 20.35H11.459C12.8259 20.35 13.934 19.2419 13.934 17.875L11.734 17.875C11.734 18.0269 11.6109 18.15 11.459 18.15C11.3071 18.15 11.184 18.0269 11.184 17.875L8.98398 17.875ZM12.834 16.5H10.084H12.834ZM8.98398 16.5V17.875C8.98398 19.2419 10.0921 20.35 11.459 20.35L11.459 18.15C11.3071 18.15 11.184 18.0269 11.184 17.875V16.5H8.98398ZM11.459 20.35C12.8259 20.35 13.934 19.2419 13.934 17.875V16.5H11.734V17.875C11.734 18.0269 11.6109 18.15 11.459 18.15L11.459 20.35Z" fill="#292524" mask="url(#path-8-inside-1_382_7748)"/>
<path d="M11.916 18.5165C11.916 19.4278 12.6547 20.1665 13.566 20.1665H15.5827C16.5952 20.1665 17.416 19.3457 17.416 18.3332V11.9165" stroke="#292524" stroke-width="1.1"/>
</svg>
