<svg width="22" height="22" viewBox="0 0 22 22" fill="none" xmlns="http://www.w3.org/2000/svg">
<path d="M19.6945 9.19125C14.8233 4.57492 7.1783 4.57492 2.30713 9.19125C2.24158 9.25337 2.16444 9.30197 2.08012 9.33427C1.99579 9.36657 1.90593 9.38195 1.81566 9.37953C1.72539 9.3771 1.63648 9.35692 1.55401 9.32013C1.47154 9.28335 1.39712 9.23068 1.335 9.16513C1.27289 9.09958 1.22429 9.02244 1.19199 8.93812C1.15968 8.85379 1.14431 8.76393 1.14673 8.67366C1.15163 8.49135 1.22875 8.31845 1.36113 8.193C6.76305 3.07434 15.2395 3.07434 20.6405 8.193C20.773 8.31845 20.8502 8.4914 20.8552 8.67379C20.8602 8.85619 20.7925 9.03309 20.667 9.16559C20.5416 9.29809 20.3687 9.37532 20.1863 9.38031C20.0039 9.38529 19.827 9.3167 19.6945 9.19125ZM4.0983 11.339C7.91071 7.52659 14.0909 7.52659 17.9033 11.339C18.0247 11.4693 18.0908 11.6417 18.0877 11.8198C18.0846 11.9979 18.0124 12.1679 17.8864 12.2938C17.7605 12.4198 17.5906 12.4919 17.4124 12.4951C17.2343 12.4982 17.062 12.4321 16.9316 12.3107C15.3587 10.7377 13.2253 9.85405 11.0008 9.85405C8.7763 9.85405 6.64292 10.7377 5.06996 12.3107C5.00702 12.3782 4.93112 12.4324 4.84679 12.47C4.76246 12.5075 4.67142 12.5278 4.57911 12.5294C4.4868 12.531 4.3951 12.514 4.3095 12.4794C4.22389 12.4449 4.14613 12.3934 4.08084 12.3281C4.01556 12.2628 3.96409 12.1851 3.92952 12.0995C3.89494 12.0139 3.87796 11.9222 3.87959 11.8299C3.88122 11.7375 3.90142 11.6465 3.939 11.5622C3.97657 11.4778 4.03075 11.4019 4.0983 11.339ZM6.8483 14.3255C7.94968 13.2243 9.44335 12.6057 11.0008 12.6057C12.5582 12.6057 14.0519 13.2243 15.1533 14.3255C15.2747 14.4558 15.3408 14.6282 15.3377 14.8063C15.3346 14.9844 15.2624 15.1544 15.1364 15.2803C15.0105 15.4063 14.8406 15.4784 14.6624 15.4816C14.4843 15.4847 14.312 15.4186 14.1816 15.2972C13.7639 14.8794 13.268 14.548 12.7223 14.322C12.1765 14.0959 11.5915 13.9795 11.0008 13.9795C10.41 13.9795 9.82509 14.0959 9.27932 14.322C8.73355 14.548 8.23766 14.8794 7.81996 15.2972C7.68963 15.4186 7.51726 15.4847 7.33915 15.4816C7.16104 15.4784 6.9911 15.4063 6.86514 15.2803C6.73918 15.1544 6.66703 14.9844 6.66389 14.8063C6.66074 14.6282 6.72686 14.4558 6.8483 14.3255ZM11.0008 16.4998C11.1831 16.4998 11.358 16.5723 11.4869 16.7012C11.6159 16.8301 11.6883 17.005 11.6883 17.1873V17.6457C11.6883 17.828 11.6159 18.0029 11.4869 18.1318C11.358 18.2607 11.1831 18.3332 11.0008 18.3332C10.8185 18.3332 10.6436 18.2607 10.5147 18.1318C10.3857 18.0029 10.3133 17.828 10.3133 17.6457V17.1873C10.3133 17.005 10.3857 16.8301 10.5147 16.7012C10.6436 16.5723 10.8185 16.4998 11.0008 16.4998Z" fill="#292524"/>
<circle cx="11.0007" cy="17.4167" r="0.916667" fill="#96C8E2"/>
</svg>
